{"title":"Betrayal.2012.DVDRip.AC3.HORiZON-ArtSubs","uid":8249686,"size":1790129812,"categoryP":"video","categoryS":"movies","magnet":"?xt=urn:btih:bd23dc9142f285c7141da77ae7d713da52227c7d&amp;dn=Betrayal.2012.DVDRip.AC3.HORiZON-ArtSubs&amp;tr=udp%3A%2F%2Ftracker.openbittorrent.com%3A80&amp;tr=udp%3A%2F%2Fopen.demonii.com%3A1337&amp;tr=udp%3A%2F%2Ftracker.coppersurfer.tk%3A6969&amp;tr=udp%3A%2F%2Fexodus.desync.com%3A6969","seeders":0,"leechers":1,"uploader":"lletaif","files":2,"time":1363142470,"description":"Title:\nBetrayal Aka Izmena\n\nCountry:\nRussia/2012\n\nLanguage:\nRussian\n\nSubtitle:\nEnglish\n\nDirector:\nKirill Serebrennikov\n\nStars:\nAlbina Dzhanabaeva, Dejan Lilic, Svetlana Mamresheva \n\nSynopsis:\nA romance between two strangers who discover that their partners are lovers.\n\nTrivia:\nOfficial Selection Venice Film Festival 2012.\n\nMedia Info:\n\nGeneral\nComplete name                            : Betrayal.2012.DVDRip.AC3.HORiZON-ArtSubs\nFormat                                   : AVI\nFormat/Info                              : Audio Video Interleave\nFormat profile                           : OpenDML\nFile size                                : 1.67 GiB\nDuration                                 : 1h 54mn\nOverall bit rate                         : 2 081 Kbps\nWriting application                      : Lavf52.94.0\n\nVideo\nID                                       : 0\nFormat                                   : MPEG-4 Visual\nFormat profile                           : Simple@L3\nFormat settings, BVOP                    : No\nFormat settings, QPel                    : No\nFormat settings, GMC                     : No warppoints\nFormat settings, Matrix                  : Default (H.263)\nCodec ID                                 : XVID\nCodec ID/Hint                            : XviD\nDuration                                 : 1h 54mn\nBit rate                                 : 1 845 Kbps\nWidth                                    : 1 024 pixels\nHeight                                   : 576 pixels\nDisplay aspect ratio                     : 16:9\nFrame rate                               : 25.000 fps\nColor space                              : YUV\nChroma subsampling                       : 4:2:0\nBit depth                                : 8 bits\nScan type                                : Progressive\nCompression mode                         : Lossy\nBits/(Pixel*Frame)                       : 0.125\nStream size                              : 1.48 GiB (89%)\nWriting library                          : XviD 1.2.1 (UTC 2008-12-04)\n\nAudio\nID                                       : 1\nFormat                                   : AC-3\nFormat/Info                              : Audio Coding 3\nMode extension                           : CM (complete main)\nFormat settings, Endianness              : Big\nCodec ID                                 : 2000\nDuration                                 : 1h 54mn\nBit rate mode                            : Constant\nBit rate                                 : 224 Kbps\nChannel(s)                               : 2 channels\nChannel positions                        : Front: L R\nSampling rate                            : 48.0 KHz\nBit depth                                : 16 bits\nCompression mode                         : Lossy\nStream size                              : 184 MiB (11%)\nAlignment                                : Aligned on interleaves\nInterleave, duration                     : 32 ms (0.80 video frame)\n\n","torrent":{"xt":"urn:btih:bd23dc9142f285c7141da77ae7d713da52227c7d","amp;dn":"Betrayal.2012.DVDRip.AC3.HORiZON-ArtSubs","amp;tr":["udp%3A%2F%2Ftracker.openbittorrent.com%3A80","udp%3A%2F%2Fopen.demonii.com%3A1337","udp%3A%2F%2Ftracker.coppersurfer.tk%3A6969","udp%3A%2F%2Fexodus.desync.com%3A6969"],"infoHash":"bd23dc9142f285c7141da77ae7d713da52227c7d","infoHashBuffer":{"type":"Buffer","data":[189,35,220,145,66,242,133,199,20,29,167,122,231,215,19,218,82,34,124,125]},"announce":[],"urlList":[]}}